<svg id="visual" viewBox="0 0 960 540" width="960" height="540" xmlns="http://www.w3.org/2000/svg" xmlns:xlink="http://www.w3.org/1999/xlink" version="1.1"><rect x="0" y="0" width="960" height="540" fill="#ffffff"></rect><path d="M0 404L22.8 402.3C45.7 400.7 91.3 397.3 137 396.2C182.7 395 228.3 396 274 389C319.7 382 365.3 367 411.2 359.3C457 351.7 503 351.3 548.8 359.2C594.7 367 640.3 383 686 386.8C731.7 390.7 777.3 382.3 823 377.2C868.7 372 914.3 370 937.2 369L960 368L960 541L937.2 541C914.3 541 868.7 541 823 541C777.3 541 731.7 541 686 541C640.3 541 594.7 541 548.8 541C503 541 457 541 411.2 541C365.3 541 319.7 541 274 541C228.3 541 182.7 541 137 541C91.3 541 45.7 541 22.8 541L0 541Z" fill="#43575c"></path><path d="M0 430L22.8 426.7C45.7 423.3 91.3 416.7 137 406.3C182.7 396 228.3 382 274 380.7C319.7 379.3 365.3 390.7 411.2 396.5C457 402.3 503 402.7 548.8 402.3C594.7 402 640.3 401 686 405.5C731.7 410 777.3 420 823 420.8C868.7 421.7 914.3 413.3 937.2 409.2L960 405L960 541L937.2 541C914.3 541 868.7 541 823 541C777.3 541 731.7 541 686 541C640.3 541 594.7 541 548.8 541C503 541 457 541 411.2 541C365.3 541 319.7 541 274 541C228.3 541 182.7 541 137 541C91.3 541 45.7 541 22.8 541L0 541Z" fill="#41707e"></path><path d="M0 459L22.8 451.5C45.7 444 91.3 429 137 419.3C182.7 409.7 228.3 405.3 274 408.7C319.7 412 365.3 423 411.2 431.3C457 439.7 503 445.3 548.8 449.2C594.7 453 640.3 455 686 451.5C731.7 448 777.3 439 823 436C868.7 433 914.3 436 937.2 437.5L960 439L960 541L937.2 541C914.3 541 868.7 541 823 541C777.3 541 731.7 541 686 541C640.3 541 594.7 541 548.8 541C503 541 457 541 411.2 541C365.3 541 319.7 541 274 541C228.3 541 182.7 541 137 541C91.3 541 45.7 541 22.8 541L0 541Z" fill="#3a8aa4"></path><path d="M0 471L22.8 464.8C45.7 458.7 91.3 446.3 137 445C182.7 443.7 228.3 453.3 274 458.3C319.7 463.3 365.3 463.7 411.2 464C457 464.3 503 464.7 548.8 467.3C594.7 470 640.3 475 686 472.2C731.7 469.3 777.3 458.7 823 460C868.7 461.3 914.3 474.7 937.2 481.3L960 488L960 541L937.2 541C914.3 541 868.7 541 823 541C777.3 541 731.7 541 686 541C640.3 541 594.7 541 548.8 541C503 541 457 541 411.2 541C365.3 541 319.7 541 274 541C228.3 541 182.7 541 137 541C91.3 541 45.7 541 22.8 541L0 541Z" fill="#2ba4cd"></path><path d="M0 487L22.8 487.2C45.7 487.3 91.3 487.7 137 485.5C182.7 483.3 228.3 478.7 274 478.7C319.7 478.7 365.3 483.3 411.2 489.7C457 496 503 504 548.8 504.3C594.7 504.7 640.3 497.3 686 495.5C731.7 493.7 777.3 497.3 823 496.7C868.7 496 914.3 491 937.2 488.5L960 486L960 541L937.2 541C914.3 541 868.7 541 823 541C777.3 541 731.7 541 686 541C640.3 541 594.7 541 548.8 541C503 541 457 541 411.2 541C365.3 541 319.7 541 274 541C228.3 541 182.7 541 137 541C91.3 541 45.7 541 22.8 541L0 541Z" fill="#0fbdf9"></path></svg>