<svg xmlns="http://www.w3.org/2000/svg" version="1.1" xmlns:xlink="http://www.w3.org/1999/xlink" xmlns:svgjs="http://svgjs.dev/svgjs" width="1440" height="560" preserveAspectRatio="none" viewBox="0 0 1440 560"><g clip-path="url(&quot;#SvgjsClipPath1023&quot;)" fill="none"><circle r="93.335" cx="-12.56" cy="22.33" stroke="#365aa3" stroke-opacity="0.25" stroke-width="2"></circle><circle r="93.335" cx="386.42" cy="406.5" stroke="#365aa3" stroke-opacity="0.25" stroke-width="2"></circle><circle r="93.335" cx="719.02" cy="782.1" stroke="#365aa3" stroke-opacity="0.25" stroke-width="2"></circle><circle r="175.32" cx="801.94" cy="90.65" stroke="#365aa3" stroke-opacity="0.25" stroke-width="2"></circle><circle r="143.905" cx="932.17" cy="316.84" stroke="#365aa3" stroke-opacity="0.25" stroke-width="2"></circle><circle r="60.96" cx="499.1" cy="331.12" stroke="#365aa3" stroke-opacity="0.25" stroke-width="2"></circle><circle r="122.485" cx="58.67" cy="3.43" stroke="#365aa3" stroke-opacity="0.25" stroke-width="2"></circle><circle r="53.215" cx="1076.72" cy="393.88" stroke="#365aa3" stroke-opacity="0.25" stroke-width="2"></circle><circle r="62.905" cx="570.65" cy="321.79" stroke="#365aa3" stroke-opacity="0.25" stroke-width="2"></circle><circle r="177.48" cx="1203.9" cy="314.56" stroke="#365aa3" stroke-opacity="0.25" stroke-width="2"></circle><circle r="147.775" cx="698.87" cy="262.93" stroke="#365aa3" stroke-opacity="0.25" stroke-width="2"></circle><circle r="122.9" cx="900.09" cy="373.43" stroke="#365aa3" stroke-opacity="0.25" stroke-width="2"></circle><circle r="107.965" cx="433.84" cy="515.27" stroke="#365aa3" stroke-opacity="0.25" stroke-width="2"></circle><circle r="134.815" cx="1061.35" cy="411.05" stroke="#365aa3" stroke-opacity="0.25" stroke-width="2"></circle><circle r="150.87" cx="182.71" cy="214.62" stroke="#365aa3" stroke-opacity="0.25" stroke-width="2"></circle><circle r="80.92" cx="579.97" cy="508.37" stroke="#365aa3" stroke-opacity="0.25" stroke-width="2"></circle><circle r="84.54" cx="60.44" cy="550.96" stroke="#365aa3" stroke-opacity="0.25" stroke-width="2"></circle><circle r="127.125" cx="173.69" cy="396.56" stroke="#365aa3" stroke-opacity="0.25" stroke-width="2"></circle><circle r="186.595" cx="1289.72" cy="343.94" stroke="#365aa3" stroke-opacity="0.25" stroke-width="2"></circle><circle r="58.795" cx="509.42" cy="174.08" stroke="#365aa3" stroke-opacity="0.25" stroke-width="2"></circle><circle r="54.76" cx="505.9" cy="256.38" stroke="#365aa3" stroke-opacity="0.25" stroke-width="2"></circle><circle r="111.295" cx="1378.72" cy="415.89" stroke="#365aa3" stroke-opacity="0.25" stroke-width="2"></circle><circle r="58.92" cx="532.51" cy="44.09" stroke="#365aa3" stroke-opacity="0.25" stroke-width="2"></circle><circle r="137.59" cx="1116.4" cy="213.09" stroke="#365aa3" stroke-opacity="0.25" stroke-width="2"></circle><circle r="94.98" cx="978.93" cy="55.21" stroke="#365aa3" stroke-opacity="0.25" stroke-width="2"></circle><circle r="143.09" cx="1287.74" cy="154.09" stroke="#365aa3" stroke-opacity="0.25" stroke-width="2"></circle><circle r="183.315" cx="645.92" cy="78.64" stroke="#365aa3" stroke-opacity="0.25" stroke-width="2"></circle><circle r="60.545" cx="1090.23" cy="303.52" stroke="#365aa3" stroke-opacity="0.25" stroke-width="2"></circle><circle r="68.875" cx="31.76" cy="74.07" stroke="#365aa3" stroke-opacity="0.25" stroke-width="2"></circle><circle r="131.62" cx="1006.65" cy="498.65" stroke="#365aa3" stroke-opacity="0.25" stroke-width="2"></circle><circle r="51.895" cx="1438.64" cy="243.96" stroke="#365aa3" stroke-opacity="0.25" stroke-width="2"></circle><circle r="146.81" cx="23.68" cy="278.74" stroke="#365aa3" stroke-opacity="0.25" stroke-width="2"></circle><circle r="186.255" cx="459.99" cy="366.77" stroke="#365aa3" stroke-opacity="0.25" stroke-width="2"></circle><circle r="73.545" cx="224.16" cy="44.56" stroke="#365aa3" stroke-opacity="0.25" stroke-width="2"></circle><circle r="79.755" cx="771.09" cy="341.16" stroke="#365aa3" stroke-opacity="0.25" stroke-width="2"></circle><circle r="47.095" cx="788.06" cy="361.31" stroke="#365aa3" stroke-opacity="0.25" stroke-width="2"></circle><circle r="114.89" cx="1037.23" cy="277.86" stroke="#365aa3" stroke-opacity="0.25" stroke-width="2"></circle><circle r="73.97" cx="584.59" cy="6.03" stroke="#365aa3" stroke-opacity="0.25" stroke-width="2"></circle><circle r="72.69" cx="193.08" cy="378.13" stroke="#365aa3" stroke-opacity="0.25" stroke-width="2"></circle><circle r="108.285" cx="1261.22" cy="384.75" stroke="#365aa3" stroke-opacity="0.25" stroke-width="2"></circle><circle r="130.655" cx="79.88" cy="133.49" stroke="#365aa3" stroke-opacity="0.25" stroke-width="2"></circle><circle r="155.245" cx="332.14" cy="479.57" stroke="#365aa3" stroke-opacity="0.25" stroke-width="2"></circle><circle r="122.56" cx="1114.87" cy="66.15" stroke="#365aa3" stroke-opacity="0.25" stroke-width="2"></circle><circle r="83.825" cx="727.68" cy="326.06" stroke="#365aa3" stroke-opacity="0.25" stroke-width="2"></circle><circle r="59.08" cx="923.36" cy="118.13" stroke="#365aa3" stroke-opacity="0.25" stroke-width="2"></circle><circle r="87.76" cx="342.96" cy="22.74" stroke="#365aa3" stroke-opacity="0.25" stroke-width="2"></circle></g><defs><clipPath id="SvgjsClipPath1023"><rect width="1440" height="560" x="0" y="0"></rect></clipPath></defs></svg>